<svg width="16" height="16" viewBox="0 0 16 16" fill="none" xmlns="http://www.w3.org/2000/svg">
<g clip-path="url(#clip0_170_86)">
<path d="M1.90479 4.875L7.00785 8.44712C7.4211 8.73644 7.62772 8.88106 7.85247 8.93706C8.05097 8.98656 8.2586 8.98656 8.4571 8.93706C8.68185 8.88106 8.88847 8.73644 9.30172 8.44712L14.4048 4.875M4.90479 13H11.4048C12.4549 13 12.9799 13 13.381 12.7956C13.7338 12.6159 14.0207 12.3291 14.2004 11.9762C14.4048 11.5751 14.4048 11.0501 14.4048 10V6C14.4048 4.9499 14.4048 4.42485 14.2004 4.02377C14.0207 3.67096 13.7338 3.38413 13.381 3.20436C12.9799 3 12.4549 3 11.4048 3H4.90479C3.85469 3 3.32964 3 2.92855 3.20436C2.57575 3.38413 2.28891 3.67096 2.10915 4.02377C1.90479 4.42485 1.90479 4.9499 1.90479 6V10C1.90479 11.0501 1.90479 11.5751 2.10915 11.9762C2.28891 12.3291 2.57575 12.6159 2.92855 12.7956C3.32964 13 3.85469 13 4.90479 13Z" stroke="black" stroke-width="2" stroke-linecap="round" stroke-linejoin="round"/>
</g>
<defs>
<clipPath id="clip0_170_86">
<rect width="15" height="15" fill="white" transform="translate(0.654785 0.5)"/>
</clipPath>
</defs>
</svg>
