<svg width="16" height="15" viewBox="0 0 16 15" fill="none" xmlns="http://www.w3.org/2000/svg">
<g clip-path="url(#clip0_131_260)">
<path d="M5.89246 5.53334C6.32745 6.43937 6.92047 7.2885 7.67141 8.0395C8.42241 8.7905 9.2716 9.3835 10.1776 9.8185C10.2555 9.85588 10.2945 9.87463 10.3438 9.889C10.519 9.94006 10.7342 9.90337 10.8825 9.79712C10.9243 9.76719 10.96 9.7315 11.0315 9.66006C11.25 9.4415 11.3592 9.33225 11.4691 9.26087C11.8834 8.9915 12.4175 8.9915 12.8318 9.26087C12.9417 9.33225 13.051 9.4415 13.2695 9.66006L13.3912 9.78181C13.7234 10.114 13.8895 10.2801 13.9797 10.4584C14.1591 10.8131 14.1591 11.2321 13.9797 11.5868C13.8895 11.7651 13.7234 11.9313 13.3912 12.2634L13.2927 12.3619C12.9617 12.6929 12.7962 12.8584 12.5712 12.9848C12.3215 13.1251 11.9337 13.2259 11.6473 13.2251C11.3892 13.2243 11.2128 13.1743 10.86 13.0741C8.96416 12.536 7.17516 11.5208 5.6827 10.0283C4.19021 8.53575 3.17491 6.74675 2.63681 4.8509C2.53668 4.49812 2.48661 4.32173 2.48585 4.06364C2.48499 3.77725 2.58584 3.38944 2.7261 3.13975C2.85251 2.91473 3.01801 2.74922 3.34903 2.41821L3.44755 2.31969C3.7797 1.98754 3.94578 1.82146 4.12415 1.73124C4.47887 1.55182 4.89778 1.55182 5.25251 1.73124C5.43087 1.82146 5.59695 1.98754 5.9291 2.31969L6.05089 2.44148C6.26939 2.65998 6.37865 2.76924 6.45008 2.87909C6.71945 3.29341 6.71945 3.82752 6.45008 4.24183C6.37865 4.35168 6.26939 4.46094 6.05089 4.67944C5.97945 4.75089 5.94373 4.78661 5.91383 4.82836C5.80757 4.97676 5.77088 5.19192 5.82196 5.36714C5.83633 5.41645 5.85504 5.45541 5.89246 5.53334Z" stroke="black" stroke-width="2" stroke-linecap="round" stroke-linejoin="round"/>
</g>
<defs>
<clipPath id="clip0_131_260">
<rect width="15" height="15" fill="white" transform="translate(0.654785)"/>
</clipPath>
</defs>
</svg>
