<svg width="25" height="24" viewBox="0 0 25 24" fill="none" xmlns="http://www.w3.org/2000/svg">
<path d="M5.5 4.98951C5.5 4.01835 5.5 3.53277 5.70249 3.2651C5.87889 3.03191 6.14852 2.88761 6.4404 2.87018C6.77544 2.85017 7.17946 3.11953 7.98752 3.65823L18.5031 10.6686C19.1708 11.1137 19.5046 11.3363 19.6209 11.6168C19.7227 11.8621 19.7227 12.1377 19.6209 12.383C19.5046 12.6635 19.1708 12.886 18.5031 13.3312L7.98752 20.3415C7.17946 20.8802 6.77544 21.1496 6.4404 21.1296C6.14852 21.1122 5.87889 20.9679 5.70249 20.7347C5.5 20.467 5.5 19.9814 5.5 19.0103V4.98951Z" stroke="white" stroke-width="2" stroke-linecap="round" stroke-linejoin="round"/>
</svg>
